<svg width="539" height="602" viewBox="0 0 539 602" fill="none" xmlns="http://www.w3.org/2000/svg">
<path d="M95.9997 119.587C96.667 119.587 97.307 119.322 97.7789 118.85C98.2507 118.378 98.5158 117.738 98.5158 117.071V108.516C98.5158 107.849 98.2507 107.209 97.7789 106.737C97.307 106.265 96.667 106 95.9997 106C95.3324 106 94.6924 106.265 94.2206 106.737C93.7487 107.209 93.4836 107.849 93.4836 108.516V117.071C93.4836 117.738 93.7487 118.378 94.2206 118.85C94.6924 119.322 95.3324 119.587 95.9997 119.587Z" fill="#FFB800"/>
<path d="M95.9997 178.413C95.3324 178.413 94.6924 178.678 94.2206 179.15C93.7487 179.622 93.4836 180.262 93.4836 180.929V189.484C93.4836 190.151 93.7487 190.791 94.2206 191.263C94.6924 191.735 95.3324 192 95.9997 192C96.667 192 97.307 191.735 97.7789 191.263C98.2507 190.791 98.5158 190.151 98.5158 189.484V180.929C98.5158 180.262 98.2507 179.622 97.7789 179.15C97.307 178.678 96.667 178.413 95.9997 178.413V178.413Z" fill="#FFB800"/>
<path d="M71.6441 128.217C72.112 128.642 72.7228 128.876 73.3551 128.871C73.6862 128.873 74.0145 128.81 74.321 128.685C74.6276 128.559 74.9064 128.375 75.1415 128.142C75.3773 127.908 75.5645 127.629 75.6922 127.323C75.82 127.016 75.8857 126.687 75.8857 126.355C75.8857 126.023 75.82 125.694 75.6922 125.388C75.5645 125.081 75.3773 124.803 75.1415 124.569L69.1532 118.606C68.6719 118.193 68.0527 117.978 67.4195 118.002C66.7862 118.027 66.1855 118.289 65.7374 118.738C65.2893 119.186 65.0268 119.786 65.0024 120.42C64.9779 121.053 65.1933 121.672 65.6055 122.153L71.6441 128.217Z" fill="#FFB800"/>
<path d="M120.356 169.783C120.121 169.548 119.843 169.362 119.536 169.235C119.23 169.108 118.901 169.043 118.569 169.043C118.238 169.043 117.909 169.108 117.603 169.235C117.296 169.362 117.018 169.548 116.783 169.783C116.548 170.018 116.362 170.296 116.235 170.603C116.108 170.909 116.043 171.238 116.043 171.569C116.043 171.901 116.108 172.23 116.235 172.536C116.362 172.843 116.548 173.121 116.783 173.356L122.847 179.394C123.08 179.632 123.358 179.821 123.664 179.951C123.971 180.08 124.3 180.148 124.633 180.149C125.297 180.14 125.93 179.868 126.394 179.394C126.863 178.923 127.126 178.285 127.126 177.621C127.126 176.956 126.863 176.318 126.394 175.847L120.356 169.783Z" fill="#FFB800"/>
<path d="M66.5869 149C66.5869 148.333 66.3218 147.693 65.85 147.221C65.3781 146.749 64.7381 146.484 64.0708 146.484H55.5161C54.8488 146.484 54.2088 146.749 53.7369 147.221C53.2651 147.693 53 148.333 53 149C53 149.667 53.2651 150.307 53.7369 150.779C54.2088 151.251 54.8488 151.516 55.5161 151.516H64.0708C64.7381 151.516 65.3781 151.251 65.85 150.779C66.3218 150.307 66.5869 149.667 66.5869 149Z" fill="#FFB800"/>
<path d="M136.484 146.484H127.929C127.262 146.484 126.622 146.749 126.15 147.221C125.678 147.693 125.413 148.333 125.413 149C125.413 149.667 125.678 150.307 126.15 150.779C126.622 151.251 127.262 151.516 127.929 151.516H136.484C137.151 151.516 137.791 151.251 138.263 150.779C138.735 150.307 139 149.667 139 149C139 148.333 138.735 147.693 138.263 147.221C137.791 146.749 137.151 146.484 136.484 146.484Z" fill="#FFB800"/>
<path d="M71.6442 169.783L65.6056 175.847C65.2523 176.197 65.0108 176.644 64.9117 177.132C64.8126 177.62 64.8604 178.126 65.0489 178.586C65.2374 179.047 65.5582 179.441 65.9708 179.719C66.3834 179.998 66.8693 180.147 67.3669 180.149C67.6998 180.148 68.0291 180.08 68.3357 179.951C68.6424 179.821 68.9203 179.632 69.1533 179.394L75.2171 173.356C75.6909 172.882 75.957 172.239 75.957 171.569C75.957 170.899 75.6909 170.257 75.2171 169.783C74.7433 169.309 74.1007 169.043 73.4307 169.043C72.7606 169.043 72.118 169.309 71.6442 169.783V169.783Z" fill="#FFB800"/>
<path d="M118.645 128.871C118.976 128.873 119.304 128.81 119.611 128.684C119.917 128.559 120.196 128.375 120.431 128.142L126.47 122.078C126.939 121.606 127.202 120.969 127.202 120.304C127.202 119.639 126.939 119.002 126.47 118.53C125.999 118.061 125.361 117.798 124.696 117.798C124.031 117.798 123.394 118.061 122.922 118.53L116.859 124.569C116.623 124.803 116.435 125.081 116.308 125.388C116.18 125.694 116.114 126.023 116.114 126.355C116.114 126.687 116.18 127.016 116.308 127.323C116.435 127.629 116.623 127.908 116.859 128.142C117.094 128.375 117.372 128.559 117.679 128.684C117.986 128.81 118.314 128.873 118.645 128.871Z" fill="#FFB800"/>
<path d="M96.3271 123.21C91.2726 123.145 86.313 124.585 82.0787 127.346C77.8444 130.107 74.5267 134.064 72.5473 138.716C70.5679 143.367 70.0163 148.501 70.9625 153.467C71.9087 158.433 74.31 163.005 77.8612 166.602C81.4124 170.199 85.9531 172.66 90.906 173.67C95.8589 174.68 101 174.195 105.677 172.276C110.353 170.357 114.353 167.09 117.169 162.892C119.984 158.694 121.488 153.753 121.488 148.698C121.522 141.985 118.892 135.532 114.175 130.754C109.459 125.976 103.04 123.263 96.3271 123.21V123.21ZM96.3271 169.129C92.2669 169.194 88.2793 168.049 84.8721 165.84C81.4648 163.631 78.7921 160.458 77.1943 156.725C75.5965 152.991 75.1459 148.867 75.8999 144.877C76.6539 140.887 78.5784 137.212 81.4283 134.319C84.2781 131.427 87.9245 129.448 91.9028 128.634C95.8812 127.821 100.012 128.21 103.768 129.752C107.525 131.294 110.737 133.919 112.997 137.293C115.256 140.667 116.46 144.637 116.456 148.698C116.483 154.073 114.38 159.239 110.608 163.068C106.836 166.896 101.701 169.076 96.3271 169.129V169.129Z" fill="#FFB800"/>
<rect x="303" y="25" width="184" height="9" fill="#2563C0"/>
<rect x="303" y="49" width="184" height="6" fill="#2563C0"/>
<rect x="303" y="69" width="184" height="3" fill="#2563C0"/>
<path d="M59.3478 72V12.878H70.1718V61.094H118.388V72H59.3478ZM137.912 72C135.779 72 133.966 71.2533 132.472 69.76C130.979 68.2667 130.232 66.4533 130.232 64.32V33.6C130.232 31.4667 130.979 29.6533 132.472 28.16C133.966 26.6667 135.779 25.92 137.912 25.92H168.632C170.766 25.92 172.579 26.6667 174.072 28.16C175.566 29.6533 176.312 31.4667 176.312 33.6V64.32C176.312 66.4533 175.566 68.2667 174.072 69.76C172.579 71.2533 170.766 72 168.632 72H137.912ZM137.912 66.816H168.632C169.315 66.816 169.891 66.5813 170.36 66.112C170.872 65.6 171.128 65.0027 171.128 64.32V33.6C171.128 32.9173 170.872 32.3413 170.36 31.872C169.891 31.36 169.315 31.104 168.632 31.104H137.912C137.23 31.104 136.632 31.36 136.12 31.872C135.651 32.3413 135.416 32.9173 135.416 33.6V64.32C135.416 65.0027 135.651 65.6 136.12 66.112C136.632 66.5813 137.23 66.816 137.912 66.816ZM189.888 72V33.6C189.888 31.4667 190.635 29.6533 192.128 28.16C193.622 26.6667 195.435 25.92 197.568 25.92H228.288C230.422 25.92 232.235 26.6667 233.728 28.16C235.222 29.6533 235.968 31.4667 235.968 33.6V72H230.784V55.168H195.072V72H189.888ZM195.072 49.984H230.784V33.6C230.784 32.9173 230.528 32.3413 230.016 31.872C229.547 31.36 228.971 31.104 228.288 31.104H197.568C196.886 31.104 196.288 31.36 195.776 31.872C195.307 32.3413 195.072 32.9173 195.072 33.6V49.984ZM249.66 72V25.92H256.764L290.556 66.112V25.92H295.74V72H288.636L254.844 31.808V72H249.66Z" fill="#2563C0"/>
<path d="M258.777 171C255.661 171 252.982 169.879 250.741 167.638C248.5 165.397 247.379 162.718 247.379 159.602V123.358C247.379 120.242 248.5 117.563 250.741 115.322C252.982 113.081 255.661 111.96 258.777 111.96H306.255V122.866H261.073C259.542 122.866 258.668 122.975 258.449 123.194C258.285 123.358 258.203 124.205 258.203 125.736V157.224C258.203 158.755 258.285 159.629 258.449 159.848C258.668 160.012 259.542 160.094 261.073 160.094H306.255V171H258.777ZM322.125 171V132.6C322.125 130.467 322.872 128.653 324.365 127.16C325.858 125.667 327.672 124.92 329.805 124.92H360.525C362.658 124.92 364.472 125.667 365.965 127.16C367.458 128.653 368.205 130.467 368.205 132.6V171H363.021V154.168H327.309V171H322.125ZM327.309 148.984H363.021V132.6C363.021 131.917 362.765 131.341 362.253 130.872C361.784 130.36 361.208 130.104 360.525 130.104H329.805C329.122 130.104 328.525 130.36 328.013 130.872C327.544 131.341 327.309 131.917 327.309 132.6V148.984ZM381.961 171V124.856H387.145V165.816H428.041V171H381.961ZM445.852 171C443.719 171 441.905 170.253 440.412 168.76C438.919 167.267 438.172 165.453 438.172 163.32V132.6C438.172 130.467 438.919 128.653 440.412 127.16C441.905 125.667 443.719 124.92 445.852 124.92H484.124V130.104H445.852C445.169 130.104 444.572 130.36 444.06 130.872C443.591 131.341 443.356 131.917 443.356 132.6V163.32C443.356 164.003 443.591 164.6 444.06 165.112C444.572 165.581 445.169 165.816 445.852 165.816H484.124V171H445.852Z" fill="#2563C0"/>
<path d="M481.812 345.625H477.125V326.875C477.125 321.698 472.927 317.5 467.75 317.5H446.187L421.818 287.037C420.061 284.842 417.833 283.069 415.298 281.851C412.764 280.633 409.988 280 407.176 280H374C368.823 280 364.625 284.198 364.625 289.375V317.5H313.062C310.473 317.5 308.375 319.598 308.375 322.188V345.625H303.688C301.098 345.625 299 347.723 299 350.312V359.688C299 362.277 301.098 364.375 303.688 364.375H308.586C317.144 353.052 330.588 345.625 345.875 345.625C361.162 345.625 374.606 353.052 383.164 364.375H402.339C410.896 353.052 424.341 345.625 439.628 345.625C454.915 345.625 468.359 353.052 476.917 364.375H481.812C484.402 364.375 486.5 362.277 486.5 359.688V350.312C486.5 347.723 484.402 345.625 481.812 345.625ZM383.375 317.5V298.75H407.176L422.176 317.5H383.375ZM472.438 383.125H470.914C470.27 380.978 469.429 378.941 468.38 377.005L469.455 375.93C471.286 374.099 471.286 371.131 469.455 369.3L462.825 362.67C460.994 360.839 458.026 360.839 456.195 362.67L455.12 363.745C453.172 362.694 451.121 361.845 449 361.211V359.688C449 357.098 446.902 355 444.312 355H434.938C432.348 355 430.25 357.098 430.25 359.688V361.211C428.103 361.855 426.066 362.696 424.13 363.745L423.055 362.67C421.224 360.839 418.256 360.839 416.425 362.67L409.795 369.3C407.964 371.131 407.964 374.099 409.795 375.93L410.87 377.005C409.819 378.953 408.97 381.004 408.336 383.125H406.812C404.223 383.125 402.125 385.223 402.125 387.812V397.188C402.125 399.777 404.223 401.875 406.812 401.875H408.336C408.98 404.022 409.821 406.059 410.87 407.995L409.795 409.07C407.964 410.901 407.964 413.869 409.795 415.7L416.425 422.33C418.256 424.161 421.224 424.161 423.055 422.33L424.13 421.255C426.066 422.301 428.105 423.145 430.253 423.789V425.312C430.253 427.902 432.351 430 434.94 430H444.315C446.905 430 449.003 427.902 449.003 425.312V423.789C451.15 423.145 453.187 422.304 455.126 421.255L456.201 422.33C458.032 424.161 461 424.161 462.831 422.33L469.461 415.7C471.292 413.869 471.292 410.901 469.461 409.07L468.386 407.995C469.437 406.047 470.286 403.996 470.92 401.875H472.443C475.033 401.875 477.131 399.777 477.131 397.188V387.812C477.125 385.223 475.027 383.125 472.438 383.125ZM439.625 406.562C431.858 406.562 425.562 400.267 425.562 392.5C425.562 384.733 431.858 378.438 439.625 378.438C447.392 378.438 453.688 384.733 453.688 392.5C453.688 400.267 447.392 406.562 439.625 406.562ZM378.688 383.125H377.164C376.52 380.978 375.679 378.941 374.63 377.005L375.705 375.93C377.536 374.099 377.536 371.131 375.705 369.3L369.075 362.67C367.244 360.839 364.276 360.839 362.445 362.67L361.37 363.745C359.422 362.694 357.371 361.845 355.25 361.211V359.688C355.25 357.098 353.152 355 350.562 355H341.188C338.598 355 336.5 357.098 336.5 359.688V361.211C334.353 361.855 332.316 362.696 330.38 363.745L329.305 362.67C327.474 360.839 324.506 360.839 322.675 362.67L316.045 369.297C314.214 371.128 314.214 374.096 316.045 375.927L317.12 377.002C316.069 378.95 315.22 381.001 314.586 383.122H313.062C310.473 383.122 308.375 385.22 308.375 387.81V397.185C308.375 399.774 310.473 401.872 313.062 401.872H314.586C315.23 404.02 316.071 406.056 317.12 407.992L316.045 409.067C314.214 410.898 314.214 413.866 316.045 415.697L322.675 422.327C324.506 424.158 327.474 424.158 329.305 422.327L330.38 421.252C332.316 422.298 334.355 423.142 336.503 423.786V425.31C336.503 427.899 338.601 429.997 341.19 429.997H350.565C353.155 429.997 355.253 427.899 355.253 425.31V423.786C357.4 423.142 359.437 422.301 361.376 421.252L362.451 422.327C364.282 424.158 367.25 424.158 369.081 422.327L375.711 415.697C377.542 413.866 377.542 410.898 375.711 409.067L374.636 407.992C375.687 406.044 376.536 403.993 377.17 401.872H378.693C381.283 401.872 383.381 399.774 383.381 397.185V387.81C383.375 385.223 381.277 383.125 378.688 383.125ZM345.875 406.562C338.108 406.562 331.812 400.267 331.812 392.5C331.812 384.733 338.108 378.438 345.875 378.438C353.642 378.438 359.938 384.733 359.938 392.5C359.938 400.267 353.642 406.562 345.875 406.562Z" fill="black"/>
<path d="M176.328 239.795C175.58 239.079 174.586 238.68 173.551 238.68C172.516 238.68 171.521 239.079 170.773 239.795L78.3125 328.122C77.9198 328.498 77.6074 328.949 77.3942 329.449C77.181 329.949 77.0713 330.487 77.072 331.03L77.0569 413.929C77.0569 418.191 78.7501 422.279 81.7641 425.293C84.7781 428.307 88.8659 430 93.1283 430H141.393C143.524 430 145.568 429.153 147.075 427.646C148.582 426.139 149.429 424.095 149.429 421.964V353.661C149.429 352.595 149.852 351.573 150.605 350.82C151.359 350.066 152.381 349.643 153.446 349.643H193.625C194.691 349.643 195.713 350.066 196.466 350.82C197.22 351.573 197.643 352.595 197.643 353.661V421.964C197.643 424.095 198.489 426.139 199.996 427.646C201.503 429.153 203.547 430 205.679 430H253.923C258.185 430 262.273 428.307 265.287 425.293C268.301 422.279 269.994 418.191 269.994 413.929V331.03C269.995 330.487 269.885 329.949 269.672 329.449C269.459 328.949 269.147 328.498 268.754 328.122L176.328 239.795Z" fill="#2563C0"/>
<path d="M291.515 311.549L253.948 275.609V221.071C253.948 218.94 253.102 216.896 251.595 215.389C250.088 213.882 248.044 213.036 245.913 213.036H221.805C219.674 213.036 217.63 213.882 216.123 215.389C214.616 216.896 213.77 218.94 213.77 221.071V237.143L184.68 209.329C181.958 206.577 177.91 205 173.536 205C169.177 205 165.139 206.577 162.417 209.334L55.5917 311.539C52.4678 314.552 52.0761 319.509 54.9187 322.773C55.6325 323.597 56.5066 324.268 57.4876 324.743C58.4687 325.219 59.5362 325.489 60.6253 325.539C61.7144 325.589 62.8022 325.417 63.8225 325.033C64.8429 324.649 65.7744 324.061 66.5605 323.306L170.774 223.723C171.521 223.008 172.516 222.609 173.551 222.609C174.586 222.609 175.581 223.008 176.328 223.723L280.552 323.306C282.087 324.778 284.143 325.582 286.27 325.54C288.397 325.499 290.42 324.616 291.897 323.085C294.981 319.891 294.725 314.617 291.515 311.549Z" fill="#2563C0"/>
</svg>
