<svg width="539" height="602" viewBox="0 0 539 602" fill="none" xmlns="http://www.w3.org/2000/svg">
<mask id="mask0" mask-type="alpha" maskUnits="userSpaceOnUse" x="0" y="0" width="539" height="602">
<rect width="539" height="602" fill="#C4C4C4"/>
</mask>
<g mask="url(#mask0)">
<rect x="169" y="216" width="348" height="117" fill="#21E410"/>
<path d="M100 216H171V333H100V216Z" fill="black"/>
<path d="M114.716 301V249.88H137.756C140.156 249.88 142.364 250.384 144.38 251.392C146.444 252.352 148.22 253.672 149.708 255.352C151.196 256.984 152.348 258.832 153.164 260.896C154.028 262.96 154.46 265.048 154.46 267.16C154.46 270.328 153.692 273.256 152.156 275.944C150.668 278.584 148.652 280.6 146.108 281.992L157.34 301H144.308L134.516 284.512H126.524V301H114.716ZM126.524 274.216H137.324C138.716 274.216 139.916 273.568 140.924 272.272C141.932 270.928 142.436 269.224 142.436 267.16C142.436 265.096 141.86 263.44 140.708 262.192C139.556 260.896 138.308 260.248 136.964 260.248H126.524V274.216Z" fill="#21E410"/>
<path d="M220.407 296.536V301H186.063V249.88H219.759V254.344H191.103V272.776H216.087V277.024H191.103V296.536H220.407ZM270.762 250.24H275.514L282.714 268.384L289.986 250.24H294.81L285.882 272.056L295.674 295.168L314.178 249.88H319.65L297.978 301H293.514L282.786 275.728L271.986 301H267.594L245.994 249.88H251.394L269.97 295.168L279.69 272.056L270.762 250.24ZM348.442 301V249.88H353.482V301H348.442ZM392.942 259.168V301H387.902V249.88H392.078L425.63 292.504V249.952H430.67V301H425.99L392.942 259.168ZM465.119 301V249.88H482.471C487.895 249.88 492.407 251.032 496.007 253.336C499.655 255.592 502.391 258.664 504.215 262.552C506.039 266.392 506.951 270.664 506.951 275.368C506.951 280.552 505.943 285.064 503.927 288.904C501.911 292.744 499.079 295.72 495.431 297.832C491.783 299.944 487.463 301 482.471 301H465.119ZM501.911 275.368C501.911 271.288 501.143 267.664 499.607 264.496C498.119 261.328 495.911 258.856 492.983 257.08C490.103 255.256 486.599 254.344 482.471 254.344H470.159V296.536H482.471C486.695 296.536 490.247 295.6 493.127 293.728C496.007 291.856 498.191 289.336 499.679 286.168C501.167 283 501.911 279.4 501.911 275.368Z" fill="black"/>
<path d="M73.5 234V318L22 278L73.5 234Z" fill="black"/>
<path d="M156.598 366.706C156.598 367.342 156.436 367.912 156.112 368.416C155.788 368.908 155.35 369.298 154.798 369.586C154.258 369.862 153.664 370 153.016 370H146.986V357.22H153.142C153.742 357.22 154.258 357.382 154.69 357.706C155.122 358.018 155.458 358.426 155.698 358.93C155.938 359.422 156.058 359.938 156.058 360.478C156.058 361.114 155.896 361.702 155.572 362.242C155.248 362.782 154.798 363.184 154.222 363.448C154.942 363.664 155.518 364.066 155.95 364.654C156.382 365.242 156.598 365.926 156.598 366.706ZM148.246 358.318V363.034H152.638C153.058 363.034 153.43 362.926 153.754 362.71C154.09 362.482 154.348 362.194 154.528 361.846C154.72 361.486 154.816 361.096 154.816 360.676C154.816 360.244 154.726 359.848 154.546 359.488C154.366 359.128 154.12 358.846 153.808 358.642C153.496 358.426 153.142 358.318 152.746 358.318H148.246ZM155.338 366.49C155.338 366.07 155.242 365.674 155.05 365.302C154.858 364.93 154.594 364.63 154.258 364.402C153.934 364.174 153.562 364.06 153.142 364.06H148.246V368.902H153.016C153.448 368.902 153.838 368.788 154.186 368.56C154.534 368.332 154.81 368.038 155.014 367.678C155.23 367.306 155.338 366.91 155.338 366.49ZM168.07 357.22H169.132L174.442 370H173.11L171.454 366.004H165.712L164.074 370H162.724L168.07 357.22ZM171.166 365.014L168.592 358.696L165.982 365.014H171.166ZM180.354 363.52C180.354 362.752 180.486 361.99 180.75 361.234C181.026 360.478 181.422 359.794 181.938 359.182C182.454 358.558 183.09 358.066 183.846 357.706C184.602 357.334 185.46 357.148 186.42 357.148C187.548 357.148 188.52 357.412 189.336 357.94C190.152 358.456 190.752 359.122 191.136 359.938L190.146 360.55C189.87 359.986 189.522 359.542 189.102 359.218C188.682 358.882 188.232 358.642 187.752 358.498C187.284 358.354 186.816 358.282 186.348 358.282C185.58 358.282 184.902 358.438 184.314 358.75C183.726 359.05 183.228 359.458 182.82 359.974C182.424 360.49 182.124 361.06 181.92 361.684C181.716 362.308 181.614 362.944 181.614 363.592C181.614 364.3 181.734 364.978 181.974 365.626C182.214 366.262 182.55 366.832 182.982 367.336C183.414 367.84 183.918 368.242 184.494 368.542C185.082 368.83 185.718 368.974 186.402 368.974C186.882 368.974 187.374 368.89 187.878 368.722C188.382 368.554 188.85 368.296 189.282 367.948C189.714 367.6 190.068 367.15 190.344 366.598L191.388 367.138C191.112 367.774 190.698 368.314 190.146 368.758C189.606 369.202 188.994 369.538 188.31 369.766C187.638 369.994 186.978 370.108 186.33 370.108C185.454 370.108 184.65 369.922 183.918 369.55C183.186 369.166 182.55 368.662 182.01 368.038C181.482 367.402 181.074 366.694 180.786 365.914C180.498 365.122 180.354 364.324 180.354 363.52ZM198.94 370V357.238H200.2V364.654L207.238 357.22H208.624L203.404 362.836L208.894 370H207.472L202.594 363.592L200.2 366.076V370H198.94ZM234.228 358.336H229.674V370H228.414V358.336H223.86V357.22H234.228V358.336ZM246.233 370.09C245.333 370.09 244.517 369.91 243.785 369.55C243.053 369.178 242.423 368.686 241.895 368.074C241.367 367.462 240.959 366.772 240.671 366.004C240.383 365.224 240.239 364.426 240.239 363.61C240.239 362.758 240.389 361.948 240.689 361.18C240.989 360.4 241.409 359.71 241.949 359.11C242.501 358.498 243.143 358.018 243.875 357.67C244.607 357.31 245.399 357.13 246.251 357.13C247.139 357.13 247.949 357.316 248.681 357.688C249.413 358.06 250.043 358.558 250.571 359.182C251.111 359.806 251.519 360.502 251.795 361.27C252.083 362.038 252.227 362.824 252.227 363.628C252.227 364.48 252.077 365.296 251.777 366.076C251.477 366.844 251.057 367.534 250.517 368.146C249.977 368.746 249.341 369.22 248.609 369.568C247.877 369.916 247.085 370.09 246.233 370.09ZM241.499 363.61C241.499 364.306 241.613 364.972 241.841 365.608C242.069 366.244 242.393 366.814 242.813 367.318C243.233 367.822 243.731 368.224 244.307 368.524C244.895 368.812 245.537 368.956 246.233 368.956C246.965 368.956 247.619 368.806 248.195 368.506C248.783 368.194 249.281 367.78 249.689 367.264C250.109 366.748 250.427 366.178 250.643 365.554C250.859 364.918 250.967 364.27 250.967 363.61C250.967 362.914 250.853 362.248 250.625 361.612C250.397 360.976 250.067 360.406 249.635 359.902C249.215 359.398 248.717 359.002 248.141 358.714C247.565 358.426 246.929 358.282 246.233 358.282C245.513 358.282 244.859 358.432 244.271 358.732C243.695 359.032 243.197 359.44 242.777 359.956C242.369 360.46 242.051 361.03 241.823 361.666C241.607 362.302 241.499 362.95 241.499 363.61ZM278.535 358.336H273.981V370H272.721V358.336H268.167V357.22H278.535V358.336ZM295.929 357.22V370H294.687V364.024H287.109V370H285.849V357.22H287.109V362.908H294.687V357.22H295.929ZM313.125 368.884V370H304.539V357.22H312.963V358.336H305.799V362.944H312.045V364.006H305.799V368.884H313.125ZM340.507 366.706C340.507 367.342 340.345 367.912 340.021 368.416C339.697 368.908 339.259 369.298 338.707 369.586C338.167 369.862 337.573 370 336.925 370H330.895V357.22H337.051C337.651 357.22 338.167 357.382 338.599 357.706C339.031 358.018 339.367 358.426 339.607 358.93C339.847 359.422 339.967 359.938 339.967 360.478C339.967 361.114 339.805 361.702 339.481 362.242C339.157 362.782 338.707 363.184 338.131 363.448C338.851 363.664 339.427 364.066 339.859 364.654C340.291 365.242 340.507 365.926 340.507 366.706ZM332.155 358.318V363.034H336.547C336.967 363.034 337.339 362.926 337.663 362.71C337.999 362.482 338.257 362.194 338.437 361.846C338.629 361.486 338.725 361.096 338.725 360.676C338.725 360.244 338.635 359.848 338.455 359.488C338.275 359.128 338.029 358.846 337.717 358.642C337.405 358.426 337.051 358.318 336.655 358.318H332.155ZM339.247 366.49C339.247 366.07 339.151 365.674 338.959 365.302C338.767 364.93 338.503 364.63 338.167 364.402C337.843 364.174 337.471 364.06 337.051 364.06H332.155V368.902H336.925C337.357 368.902 337.747 368.788 338.095 368.56C338.443 368.332 338.719 368.038 338.923 367.678C339.139 367.306 339.247 366.91 339.247 366.49ZM356.869 368.884V370H348.283V357.22H356.707V358.336H349.543V362.944H355.789V364.006H349.543V368.884H356.869ZM369.536 370.09C368.672 370.09 367.874 369.91 367.142 369.55C366.422 369.178 365.792 368.68 365.252 368.056C364.712 367.432 364.292 366.736 363.992 365.968C363.704 365.188 363.56 364.396 363.56 363.592C363.56 362.74 363.704 361.93 363.992 361.162C364.292 360.382 364.706 359.692 365.234 359.092C365.762 358.48 366.386 358 367.106 357.652C367.826 357.304 368.612 357.13 369.464 357.13C370.724 357.13 371.75 357.388 372.542 357.904C373.334 358.42 373.934 359.092 374.342 359.92L373.37 360.568C372.962 359.776 372.416 359.194 371.732 358.822C371.048 358.45 370.286 358.264 369.446 358.264C368.738 358.264 368.096 358.414 367.52 358.714C366.956 359.014 366.47 359.416 366.062 359.92C365.666 360.424 365.36 360.994 365.144 361.63C364.928 362.266 364.82 362.926 364.82 363.61C364.82 364.33 364.94 365.014 365.18 365.662C365.42 366.298 365.756 366.868 366.188 367.372C366.632 367.864 367.142 368.254 367.718 368.542C368.306 368.818 368.942 368.956 369.626 368.956C370.358 368.956 371.054 368.782 371.714 368.434C372.386 368.086 373.028 367.546 373.64 366.814V364.69H370.796V363.718H374.702V370H373.64V368.128C372.464 369.436 371.096 370.09 369.536 370.09ZM382.691 370V357.22H383.951V370H382.691ZM393.816 359.542V370H392.556V357.22H393.6L401.988 367.876V357.238H403.248V370H402.078L393.816 359.542ZM413.12 359.542V370H411.86V357.22H412.904L421.292 367.876V357.238H422.552V370H421.382L413.12 359.542ZM431.164 370V357.22H432.424V370H431.164ZM442.289 359.542V370H441.029V357.22H442.073L450.461 367.876V357.238H451.721V370H450.551L442.289 359.542ZM465.463 370.09C464.599 370.09 463.801 369.91 463.069 369.55C462.349 369.178 461.719 368.68 461.179 368.056C460.639 367.432 460.219 366.736 459.919 365.968C459.631 365.188 459.487 364.396 459.487 363.592C459.487 362.74 459.631 361.93 459.919 361.162C460.219 360.382 460.633 359.692 461.161 359.092C461.689 358.48 462.313 358 463.033 357.652C463.753 357.304 464.539 357.13 465.391 357.13C466.651 357.13 467.677 357.388 468.469 357.904C469.261 358.42 469.861 359.092 470.269 359.92L469.297 360.568C468.889 359.776 468.343 359.194 467.659 358.822C466.975 358.45 466.213 358.264 465.373 358.264C464.665 358.264 464.023 358.414 463.447 358.714C462.883 359.014 462.397 359.416 461.989 359.92C461.593 360.424 461.287 360.994 461.071 361.63C460.855 362.266 460.747 362.926 460.747 363.61C460.747 364.33 460.867 365.014 461.107 365.662C461.347 366.298 461.683 366.868 462.115 367.372C462.559 367.864 463.069 368.254 463.645 368.542C464.233 368.818 464.869 368.956 465.553 368.956C466.285 368.956 466.981 368.782 467.641 368.434C468.313 368.086 468.955 367.546 469.567 366.814V364.69H466.723V363.718H470.629V370H469.567V368.128C468.391 369.436 467.023 370.09 465.463 370.09Z" fill="black"/>
<path d="M94 234V318L42.5 278L94 234Z" fill="#21E410"/>
</g>
</svg>
